<mxfile host="app.diagrams.net" modified="2022-12-30T11:55:21.449Z" agent="5.0 (Windows NT 10.0; Win64; x64) AppleWebKit/537.36 (KHTML, like Gecko) Chrome/108.0.0.0 Safari/537.36" version="20.7.4" etag="NAWMx6aXDRF9mzomcg54" type="github">
  <diagram id="2kStEFvWy6adiJs8inJ3" name="Страница 1">
    <mxGraphModel dx="1114" dy="654" grid="1" gridSize="10" guides="1" tooltips="1" connect="1" arrows="1" fold="1" page="1" pageScale="1" pageWidth="827" pageHeight="1169" math="0" shadow="0">
      <root>
        <mxCell id="0" />
        <mxCell id="1" parent="0" />
        <mxCell id="fR60q-NBm0Kf-Vk9rEXO-10" style="edgeStyle=orthogonalEdgeStyle;rounded=0;orthogonalLoop=1;jettySize=auto;html=1;" edge="1" parent="1" source="fR60q-NBm0Kf-Vk9rEXO-1" target="fR60q-NBm0Kf-Vk9rEXO-9">
          <mxGeometry relative="1" as="geometry" />
        </mxCell>
        <mxCell id="fR60q-NBm0Kf-Vk9rEXO-1" value="start" style="rounded=1;whiteSpace=wrap;html=1;fontSize=14;" vertex="1" parent="1">
          <mxGeometry x="328" y="40" width="120" height="60" as="geometry" />
        </mxCell>
        <mxCell id="fR60q-NBm0Kf-Vk9rEXO-12" value="Yes" style="edgeStyle=orthogonalEdgeStyle;rounded=0;orthogonalLoop=1;jettySize=auto;html=1;" edge="1" parent="1" source="fR60q-NBm0Kf-Vk9rEXO-3" target="fR60q-NBm0Kf-Vk9rEXO-4">
          <mxGeometry relative="1" as="geometry" />
        </mxCell>
        <mxCell id="fR60q-NBm0Kf-Vk9rEXO-17" style="edgeStyle=orthogonalEdgeStyle;rounded=0;orthogonalLoop=1;jettySize=auto;html=1;" edge="1" parent="1" source="fR60q-NBm0Kf-Vk9rEXO-3" target="fR60q-NBm0Kf-Vk9rEXO-7">
          <mxGeometry relative="1" as="geometry" />
        </mxCell>
        <mxCell id="fR60q-NBm0Kf-Vk9rEXO-3" value="i &amp;lt; array.Length?" style="rhombus;whiteSpace=wrap;html=1;fontSize=14;" vertex="1" parent="1">
          <mxGeometry x="290" y="300" width="196" height="90" as="geometry" />
        </mxCell>
        <mxCell id="fR60q-NBm0Kf-Vk9rEXO-13" value="Yes" style="edgeStyle=orthogonalEdgeStyle;rounded=0;orthogonalLoop=1;jettySize=auto;html=1;entryX=0.5;entryY=0;entryDx=0;entryDy=0;" edge="1" parent="1" source="fR60q-NBm0Kf-Vk9rEXO-4" target="fR60q-NBm0Kf-Vk9rEXO-5">
          <mxGeometry relative="1" as="geometry" />
        </mxCell>
        <mxCell id="fR60q-NBm0Kf-Vk9rEXO-15" value="No" style="edgeStyle=orthogonalEdgeStyle;rounded=0;orthogonalLoop=1;jettySize=auto;html=1;entryX=0.5;entryY=1;entryDx=0;entryDy=0;" edge="1" parent="1" source="fR60q-NBm0Kf-Vk9rEXO-4" target="fR60q-NBm0Kf-Vk9rEXO-6">
          <mxGeometry x="-0.3889" relative="1" as="geometry">
            <mxPoint as="offset" />
          </mxGeometry>
        </mxCell>
        <mxCell id="fR60q-NBm0Kf-Vk9rEXO-4" value="array[i] &amp;lt;signsLimit&lt;br&gt;?" style="rhombus;whiteSpace=wrap;html=1;fontSize=14;" vertex="1" parent="1">
          <mxGeometry x="291.5" y="420" width="193" height="90" as="geometry" />
        </mxCell>
        <mxCell id="fR60q-NBm0Kf-Vk9rEXO-14" style="edgeStyle=orthogonalEdgeStyle;rounded=0;orthogonalLoop=1;jettySize=auto;html=1;" edge="1" parent="1" source="fR60q-NBm0Kf-Vk9rEXO-5" target="fR60q-NBm0Kf-Vk9rEXO-6">
          <mxGeometry relative="1" as="geometry" />
        </mxCell>
        <mxCell id="fR60q-NBm0Kf-Vk9rEXO-5" value="&lt;div&gt;newArray[index] = array[i]&lt;/div&gt;&lt;div&gt;&lt;br&gt;&lt;/div&gt;&lt;div&gt;index +=1&lt;/div&gt;" style="rounded=0;whiteSpace=wrap;html=1;fontSize=14;" vertex="1" parent="1">
          <mxGeometry x="302" y="544.5" width="172" height="80" as="geometry" />
        </mxCell>
        <mxCell id="fR60q-NBm0Kf-Vk9rEXO-16" style="edgeStyle=orthogonalEdgeStyle;rounded=0;orthogonalLoop=1;jettySize=auto;html=1;entryX=0;entryY=0.5;entryDx=0;entryDy=0;" edge="1" parent="1" source="fR60q-NBm0Kf-Vk9rEXO-6" target="fR60q-NBm0Kf-Vk9rEXO-3">
          <mxGeometry relative="1" as="geometry" />
        </mxCell>
        <mxCell id="fR60q-NBm0Kf-Vk9rEXO-6" value="&lt;div&gt;&lt;span style=&quot;background-color: initial;&quot;&gt;i +=1&lt;/span&gt;&lt;br&gt;&lt;/div&gt;" style="rounded=0;whiteSpace=wrap;html=1;fontSize=14;" vertex="1" parent="1">
          <mxGeometry x="80" y="312.5" width="130" height="65" as="geometry" />
        </mxCell>
        <mxCell id="fR60q-NBm0Kf-Vk9rEXO-18" style="edgeStyle=orthogonalEdgeStyle;rounded=0;orthogonalLoop=1;jettySize=auto;html=1;" edge="1" parent="1" source="fR60q-NBm0Kf-Vk9rEXO-7" target="fR60q-NBm0Kf-Vk9rEXO-8">
          <mxGeometry relative="1" as="geometry" />
        </mxCell>
        <mxCell id="fR60q-NBm0Kf-Vk9rEXO-7" value="print &lt;br&gt;(newArray)" style="shape=document;whiteSpace=wrap;html=1;boundedLbl=1;fontSize=14;" vertex="1" parent="1">
          <mxGeometry x="540" y="310" width="130" height="70" as="geometry" />
        </mxCell>
        <mxCell id="fR60q-NBm0Kf-Vk9rEXO-8" value="end" style="rounded=1;whiteSpace=wrap;html=1;fontSize=14;" vertex="1" parent="1">
          <mxGeometry x="696" y="315" width="120" height="60" as="geometry" />
        </mxCell>
        <mxCell id="fR60q-NBm0Kf-Vk9rEXO-11" style="edgeStyle=orthogonalEdgeStyle;rounded=0;orthogonalLoop=1;jettySize=auto;html=1;" edge="1" parent="1" source="fR60q-NBm0Kf-Vk9rEXO-9" target="fR60q-NBm0Kf-Vk9rEXO-3">
          <mxGeometry relative="1" as="geometry" />
        </mxCell>
        <mxCell id="fR60q-NBm0Kf-Vk9rEXO-9" value="&lt;span style=&quot;font-size: 14px;&quot;&gt;array&amp;nbsp;= [&quot;hello&quot;, &quot;2&quot;, &quot;world&quot;, &quot;:-)&quot;]&lt;/span&gt;&lt;br style=&quot;border-color: var(--border-color); font-size: 14px;&quot;&gt;&lt;span style=&quot;font-size: 14px;&quot;&gt;newArray = []&lt;/span&gt;&lt;br style=&quot;border-color: var(--border-color); font-size: 14px;&quot;&gt;&lt;span style=&quot;font-size: 14px;&quot;&gt;index = 0&lt;/span&gt;&lt;br style=&quot;border-color: var(--border-color); font-size: 14px;&quot;&gt;&lt;span style=&quot;font-size: 14px;&quot;&gt;i = 0&lt;/span&gt;&lt;br style=&quot;border-color: var(--border-color); font-size: 14px;&quot;&gt;&lt;span style=&quot;font-size: 14px;&quot;&gt;signsLimit = 3&lt;/span&gt;" style="shape=parallelogram;perimeter=parallelogramPerimeter;whiteSpace=wrap;html=1;fixedSize=1;" vertex="1" parent="1">
          <mxGeometry x="263" y="150" width="250" height="110" as="geometry" />
        </mxCell>
      </root>
    </mxGraphModel>
  </diagram>
</mxfile>
